<svg width="16" height="16" viewBox="0 0 16 16" fill="none" xmlns="http://www.w3.org/2000/svg">
<g clip-path="url(#clip0_12040_86)">
<path d="M6.05994 6.00005C6.21667 5.5545 6.52604 5.17879 6.93324 4.93948C7.34044 4.70016 7.8192 4.61268 8.28472 4.69253C8.75024 4.77238 9.17248 5.0144 9.47665 5.37574C9.78083 5.73708 9.94731 6.1944 9.9466 6.66672C9.9466 8.00005 7.9466 8.66672 7.9466 8.66672M8.00004 11.3333H8.00671M14.6667 8C14.6667 11.6819 11.6819 14.6667 8.00004 14.6667C4.31814 14.6667 1.33337 11.6819 1.33337 8C1.33337 4.3181 4.31814 1.33333 8.00004 1.33333C11.6819 1.33333 14.6667 4.3181 14.6667 8Z" stroke="#18181B" stroke-width="1.33" stroke-linecap="round" stroke-linejoin="round"/>
</g>
<defs>
<clipPath id="clip0_12040_86">
<rect width="16" height="16" fill="white"/>
</clipPath>
</defs>
</svg>
