<svg width="16" height="16" viewBox="0 0 16 16" fill="none" xmlns="http://www.w3.org/2000/svg">
<g clip-path="url(#clip0_1_808)">
<path d="M14.6667 8H13.0133C12.722 7.99937 12.4384 8.0942 12.2061 8.26997C11.9737 8.44575 11.8053 8.69279 11.7267 8.97333L10.16 14.5467C10.1499 14.5813 10.1289 14.6117 10.1 14.6333C10.0712 14.655 10.0361 14.6667 10 14.6667C9.96394 14.6667 9.92885 14.655 9.9 14.6333C9.87115 14.6117 9.8501 14.5813 9.84 14.5467L6.16 1.45333C6.1499 1.41871 6.12885 1.3883 6.1 1.36666C6.07115 1.34502 6.03606 1.33333 6 1.33333C5.96394 1.33333 5.92885 1.34502 5.9 1.36666C5.87115 1.3883 5.8501 1.41871 5.84 1.45333L4.27333 7.02666C4.19498 7.3061 4.02759 7.55234 3.79658 7.728C3.56557 7.90367 3.28355 7.99916 2.99333 8H1.33333" stroke="#71717A" stroke-width="1.33" stroke-linecap="round" stroke-linejoin="round"/>
</g>
<defs>
<clipPath id="clip0_1_808">
<rect width="16" height="16" fill="white"/>
</clipPath>
</defs>
</svg>
